<?xml version="1.0" standalone="no"?>
<!DOCTYPE svg PUBLIC "-//W3C//DTD SVG 20010904//EN"
 "http://www.w3.org/TR/2001/REC-SVG-20010904/DTD/svg10.dtd">
<svg version="1.0" xmlns="http://www.w3.org/2000/svg"
 width="128.000000pt" height="128.000000pt" viewBox="0 0 128.000000 128.000000"
 preserveAspectRatio="xMidYMid meet">

<g transform="translate(0.000000,128.000000) scale(0.100000,-0.100000)"
fill="#000000" stroke="none">
<path d="M468 1037 c-99 -38 -157 -88 -206 -181 -23 -45 -27 -63 -27 -146 0
-82 4 -103 27 -152 32 -70 96 -133 168 -167 47 -22 69 -26 145 -26 78 0 97 4
146 28 67 32 142 109 172 175 34 72 31 207 -4 283 -33 70 -91 130 -161 165
-43 22 -70 28 -138 31 -55 2 -98 -2 -122 -10z m212 -88 c91 -41 148 -121 157
-218 10 -107 -37 -197 -132 -256 -43 -27 -57 -30 -129 -30 -63 0 -90 5 -121
22 -117 63 -171 196 -133 327 15 51 108 147 158 163 59 18 150 15 200 -8z"/>
<path d="M856 424 c-9 -8 -16 -21 -16 -27 0 -7 35 -48 79 -91 61 -61 83 -77
102 -74 16 2 25 11 27 27 3 19 -13 41 -74 102 -43 44 -84 79 -91 79 -6 0 -19
-7 -27 -16z"/>
</g>
</svg>
